<?xml version="1.0" encoding="UTF-8" standalone="no"?>
<!-- Created with Inkscape (http://www.inkscape.org/) -->

<svg
   width="32.550941mm"
   height="20.416712mm"
   viewBox="0 0 32.550941 20.416712"
   version="1.1"
   id="svg1"
   xmlns="http://www.w3.org/2000/svg"
   xmlns:svg="http://www.w3.org/2000/svg">
  <defs
     id="defs1" />
  <g
     id="layer3"
     transform="translate(-137.545,-9.4689849)">
    <path
       style="fill:#000000;stroke-width:0.264583"
       d="m 137.545,15.332683 c 5.53216,-2.183748 11.29682,-5.7644286 16.52163,-5.8595056 8.91824,-0.1622871 16.02931,4.4408206 16.02931,4.4408206 l -2.28566,1.182237 c 0,0 -4.49885,-4.408483 -13.68159,-4.302396 -4.43566,0.05124 -9.72949,3.409312 -16.58369,4.538844 z"
       id="path8" />
    <path
       style="fill:#000000;stroke-width:0.398743"
       d="m 139.59117,29.885697 c 4.07941,-3.231677 8.15882,-6.822431 14.89458,-6.912201 6.73578,-0.08976 10.72031,4.488442 10.72031,4.488442 0,0 1.51794,0.538614 1.6128,-0.62838 0.0949,-1.166996 1.13843,2.423757 -0.28461,2.962371 -1.42306,0.538612 -5.21786,-4.937286 -12.3331,-4.847518 -7.11525,0.08976 -14.60998,4.937286 -14.60998,4.937286 z"
       id="path9" />
  </g>
</svg>
