<?xml version="1.0" encoding="UTF-8" standalone="no"?>
<!-- Created with Inkscape (http://www.inkscape.org/) -->

<svg
   width="44.342579mm"
   height="31.611025mm"
   viewBox="0 0 44.342579 31.611025"
   version="1.1"
   id="svg1"
   xmlns="http://www.w3.org/2000/svg"
   xmlns:svg="http://www.w3.org/2000/svg">
  <defs
     id="defs1" />
  <g
     id="g6"
     transform="translate(-20.603265,-14.677342)">
    <path
       style="fill:#000000;stroke-width:0.239709"
       d="M 22.358912,36.407207 C 26.448,30.67337 30.412847,24.980168 40.976323,23.861369 c 7.031401,-0.744709 19.797828,7.207445 20.392889,7.416666 0.22245,0.07822 2.943625,-0.476261 2.943625,-0.476261 0,0 -5.729817,11.8296 -7.802417,15.30995 0,0 4.668521,-7.231616 0.993726,-13.189626 -2.114823,-3.428801 -10.665059,-7.705684 -16.670318,-7.143467 -12.757834,1.1944 -18.474916,10.628576 -18.474916,10.628576 z"
       id="path5" />
    <ellipse
       style="fill:#1a1a1a;stroke-width:0.19861"
       id="ellipse5"
       cx="41.678165"
       cy="35.932446"
       rx="5.0588026"
       ry="6.5883737" />
    <path
       style="fill:#f9f9f9;stroke-width:0.20847"
       id="ellipse6"
       d="m 41.437048,32.593258 a 4.1477151,6.821239 0 0 1 -4.146296,6.821238 4.1477151,6.821239 0 0 1 -4.149133,-6.816572 4.1477151,6.821239 0 0 1 4.143459,-6.825902 4.1477151,6.821239 0 0 1 4.151967,6.811904 l -4.147712,0.0093 z" />
    <path
       style="fill:#000000;stroke-width:0.38696"
       d="m 38.081289,46.288368 c 3.243269,-1.724592 8.667367,-0.418082 8.667367,-0.418082 z"
       id="path7" />
    <path
       style="fill:#000000;stroke-width:0.31454"
       d="M 20.603265,21.410707 C 40.877116,9.0183663 61.239412,17.524745 61.239412,17.524745 l 3.706431,4.957344 c 0,0 -15.82249,-12.211892 -44.342578,-1.071382 z"
       id="path8-2-3" />
  </g>
</svg>
