<?xml version="1.0" encoding="UTF-8" standalone="no"?>
<!-- Created with Inkscape (http://www.inkscape.org/) -->

<svg
   width="35.602562mm"
   height="21.862255mm"
   viewBox="0 0 35.602562 21.862255"
   version="1.1"
   id="svg1"
   xmlns="http://www.w3.org/2000/svg"
   xmlns:svg="http://www.w3.org/2000/svg">
  <defs
     id="defs1" />
  <g
     id="g11"
     transform="matrix(1.2598177,0,0,1.3288255,-175.71338,-17.850621)">
    <path
       style="fill:#000000;stroke-width:0.279041"
       d="m 139.47524,22.690359 c 3.13349,-4.833801 9.4276,-9.13836 14.26175,-9.252658 8.25139,-0.195095 13.99834,6.285122 13.99834,6.285122 l -3.39542,2.052263 c 0,0 -2.04938,-6.00961 -10.5455,-5.882076 -4.104,0.0616 -9.57829,2.915374 -14.31917,6.797349 z"
       id="path10" />
    <path
       style="fill:#000000;stroke-width:0.398743"
       d="m 139.59117,29.885697 c 4.07941,-3.231677 8.15882,-6.822431 14.89458,-6.912201 6.73578,-0.08976 10.72031,4.488442 10.72031,4.488442 0.89845,1.022582 1.32819,2.333991 1.32819,2.333991 0.13468,0.14408 -5.21786,-4.937286 -12.3331,-4.847518 -7.11525,0.08976 -14.60998,4.937286 -14.60998,4.937286 z"
       id="path11" />
  </g>
</svg>
