<?xml version="1.0" encoding="UTF-8" standalone="no"?>
<!-- Created with Inkscape (http://www.inkscape.org/) -->

<svg
   width="21.480446mm"
   height="5.7519126mm"
   viewBox="0 0 21.480446 5.7519126"
   version="1.1"
   id="svg1"
   xmlns="http://www.w3.org/2000/svg"
   xmlns:svg="http://www.w3.org/2000/svg">
  <defs
     id="defs1" />
  <g
     id="layer7"
     transform="translate(-86.526715,-116.85738)">
    <path
       style="fill:#000000;stroke-width:0.264583"
       id="path22"
       d="m 86.526715,116.85738 c 0.20102,0.85291 0.51884,1.6941 0.938128,2.465 0.127823,0.23501 0.250465,0.47749 0.422505,0.68236 0.17096,0.20358 0.397171,0.35348 0.595757,0.53022 1.373034,0.67554 2.684282,1.49475 4.119097,2.02662 0.347091,0.12866 0.740322,-0.038 1.106905,-0.0894 0.801077,-0.11235 1.457423,-0.3057 2.235355,-0.50782 0,0 -3.021575,-2.08019 -3.021575,-2.08019 v 0 c -0.806852,0.20914 -1.339961,0.38525 -2.185429,0.44313 -1.810861,0.12396 -2.00479,-0.64986 1.241248,1.60008 -0.215958,-0.13778 -0.46323,-0.23579 -0.647875,-0.41336 -0.187126,-0.17995 -0.314073,-0.41491 -0.445947,-0.63854 -0.407466,-0.69099 -0.672645,-1.46981 -0.831355,-2.25264 z" />
    <path
       style="fill:#000000;stroke-width:0.264583"
       id="path23"
       d="m 108.00716,116.85738 c -0.20102,0.85291 -0.51884,1.6941 -0.93813,2.465 -0.12782,0.23501 -0.25046,0.47749 -0.4225,0.68236 -0.17096,0.20358 -0.39717,0.35348 -0.59576,0.53022 -1.37303,0.67554 -2.68428,1.49475 -4.1191,2.02662 -0.34709,0.12866 -0.74032,-0.038 -1.1069,-0.0894 -0.80108,-0.11235 -1.457418,-0.3057 -2.235358,-0.50782 0,0 3.021578,-2.08019 3.021578,-2.08019 v 0 c 0.80685,0.20914 1.33996,0.38525 2.18543,0.44313 1.81086,0.12396 2.00479,-0.64986 -1.24125,1.60008 0.21596,-0.13778 0.46323,-0.23579 0.64787,-0.41336 0.18713,-0.17995 0.31408,-0.41491 0.44595,-0.63854 0.40747,-0.69099 0.67265,-1.46981 0.83136,-2.25264 z" />
  </g>
</svg>
