<?xml version="1.0" encoding="UTF-8" standalone="no"?>
<!-- Created with Inkscape (http://www.inkscape.org/) -->

<svg
   width="14.372188mm"
   height="4.3575602mm"
   viewBox="0 0 14.372188 4.3575602"
   version="1.1"
   id="svg1"
   xmlns="http://www.w3.org/2000/svg"
   xmlns:svg="http://www.w3.org/2000/svg">
  <defs
     id="defs1" />
  <g
     id="layer6"
     transform="translate(-51.488006,-119.22034)">
    <path
       style="fill:#000000;stroke-width:0.264583"
       id="path20"
       d="m 51.488006,120.02566 c 2.136383,1.6353 4.536818,3.12982 7.245736,3.47354 0.427435,0.0542 0.860124,0.0525 1.290183,0.0787 1.689269,-0.1954 3.134198,-0.69878 4.604271,-1.54589 0.42519,-0.24502 0.82133,-0.5373 1.231998,-0.80594 0,0 -3.129645,-2.00573 -3.129645,-2.00573 v 0 c -0.39329,0.26245 -0.769374,0.55272 -1.179867,0.78736 -1.409568,0.80573 -2.912989,1.28044 -4.541399,1.34257 -1.185214,-0.1196 -1.316482,-0.0772 -2.445292,-0.40364 -0.355783,-0.10288 -1.339715,-0.59607 -1.048726,-0.36696 0.770842,0.60691 1.680027,1.01376 2.518089,1.52385 0.181788,0.11064 -0.372313,-0.20722 -0.549224,-0.3255 -0.116753,-0.0781 -0.219861,-0.17481 -0.32979,-0.26222 z" />
  </g>
</svg>
