<?xml version="1.0" encoding="UTF-8" standalone="no"?>
<!-- Created with Inkscape (http://www.inkscape.org/) -->

<svg
   width="27.959164mm"
   height="8.0316639mm"
   viewBox="0 0 27.959164 8.0316639"
   version="1.1"
   id="svg1"
   xmlns="http://www.w3.org/2000/svg"
   xmlns:svg="http://www.w3.org/2000/svg">
  <defs
     id="defs1" />
  <g
     id="layer9"
     transform="translate(-46.529903,-145.20075)">
    <path
       style="fill:#000000;stroke-width:0.264583"
       id="path25"
       d="m 46.529903,146.9363 c 0.06757,0.0967 0.282697,0.41124 0.348443,0.47046 0.196572,0.17708 0.401087,0.34973 0.629041,0.48402 1.349513,0.795 2.7051,1.58259 4.097274,2.30028 0.673108,0.347 2.528073,0.88277 3.16066,1.07924 0.682628,0.16089 1.352288,0.39314 2.047883,0.48266 1.681252,0.21637 3.644966,0.0948 5.3058,-0.1353 1.752659,-0.24283 3.942861,-0.74553 5.612173,-1.34362 0.891302,-0.31934 1.739535,-0.74808 2.609302,-1.12212 2.927075,-1.51868 1.547929,-0.74941 4.148587,-2.28768 0,0 -2.58827,-1.66349 -2.58827,-1.66349 v 0 c -2.37666,1.65882 -1.096034,0.84215 -3.862885,2.41676 -0.859457,0.36739 -1.698051,0.78804 -2.578373,1.10218 -0.890876,0.3179 -1.803699,0.57778 -2.725385,0.79041 -2.743721,0.63299 -5.565074,0.86541 -8.353719,0.38221 -0.718288,-0.12446 -1.408951,-0.37492 -2.113425,-0.56238 -0.622832,-0.21915 -1.253795,-0.41641 -1.868493,-0.65743 -0.516977,-0.2027 -1.907712,-1.07415 -1.524011,-0.67274 0.556432,0.58211 1.379403,0.83136 2.070598,1.24455 0.173471,0.1037 -0.358029,-0.19179 -0.517406,-0.31607 -0.08558,-0.0667 -0.21717,-0.28584 -0.283417,-0.38999 z" />
    <path
       style="fill:#000000;stroke-width:0.264583"
       id="path26"
       d="m 58.079542,152.47915 c 0.414049,0.25479 0.811634,0.50408 1.275631,0.69404 0.14878,0.0609 0.318098,0.0535 0.478803,0.0579 0.593055,0.0162 1.164675,-0.11913 1.736979,-0.25239 0,0 -0.762289,-0.52758 -0.762289,-0.52758 v 0 c -0.567851,0.13271 -1.133869,0.26479 -1.723223,0.2183 -0.163414,-0.0129 -0.524886,-0.25004 -0.483182,-0.0915 0.0555,0.21097 0.370681,0.23032 0.551725,0.35204 0.04878,0.0328 -0.102994,-0.0566 -0.15449,-0.085 z" />
  </g>
</svg>
