<?xml version="1.0" encoding="UTF-8" standalone="no"?>
<!-- Created with Inkscape (http://www.inkscape.org/) -->

<svg
   width="17.051474mm"
   height="8.6314955mm"
   viewBox="0 0 17.051474 8.6314955"
   version="1.1"
   id="svg1"
   xmlns="http://www.w3.org/2000/svg"
   xmlns:svg="http://www.w3.org/2000/svg">
  <defs
     id="defs1" />
  <g
     id="layer10"
     transform="translate(-89.043054,-142.47709)">
    <path
       style="fill:#a02c2c;stroke:#000000;stroke-width:0.264583;stroke-opacity:1"
       d="m 89.456557,143.37051 c 0.762427,1.96472 2.296397,8.19046 8.325388,7.56178 6.136185,-0.63985 6.613275,-5.9394 7.455055,-7.79131"
       id="path30" />
    <path
       style="fill:#f9f9f9;stroke-width:0.264583"
       id="path32"
       d="m 92.820682,145.17334 c 0.108254,-0.004 0.717977,-0.0326 0.841691,-0.0296 0.09315,0.002 0.186115,0.01 0.279275,0.0118 0.128368,0.002 0.256784,7.9e-4 0.385175,7.9e-4 0.433375,2.7e-4 0.634537,-5.3e-4 1.08136,-0.001 0.751221,-0.0304 1.503117,-0.0302 2.254742,-0.0388 0.27549,-0.003 0.550937,-0.01 0.826434,-0.0119 0.671867,-0.005 0.959567,-5.3e-4 1.626681,0.005 0.98524,0.006 0.40858,-0.0973 1.38927,-0.004 l -0.70476,-1.49083 v 0 c -0.826362,0.11739 -1.660212,0.16286 -2.494258,0.18183 -0.620239,0.0138 -0.956689,0.0242 -1.583354,0.0261 -0.282189,7.9e-4 -0.56438,-0.002 -0.846567,-0.004 -0.801171,-0.005 -1.602962,-0.0119 -2.401921,-0.0799 -0.559038,-0.0432 -0.682072,-0.0443 -1.221971,-0.11667 -0.216447,-0.029 -0.587626,-0.0924 -0.817387,-0.13341 -0.09073,-0.0162 -0.180962,-0.0352 -0.271884,-0.0503 -0.05412,-0.009 -0.108751,-0.0146 -0.163126,-0.0219 z" />
    <path
       style="fill:#000000;stroke:#000000;stroke-width:0.264583;stroke-opacity:1"
       id="path31"
       d="m 89.899986,143.75846 c 0.09888,0.006 0.197009,0.0223 0.295945,0.0276 0.11176,0.006 0.223742,0.007 0.33561,0.0101 0.494348,0.0151 0.988283,0.0239 1.482837,0.0292 1.246248,0.0169 2.492279,-0.0282 3.737615,-0.0709 1.065482,-0.0372 2.131568,-0.0299 3.197362,-0.016 0.683961,0.0136 1.367845,0.0101 2.051565,-0.0111 0.57341,-0.0196 1.14575,-0.0556 1.71726,-0.10544 0.4384,-0.0428 0.87553,-0.0985 1.30983,-0.17213 0.21753,-0.0326 0.43543,-0.0608 0.65148,-0.10269 0.2016,-0.0444 0.40656,-0.073 0.61198,-0.0925 0.15967,-0.0129 0.31675,-0.0419 0.47338,-0.074 0,0 -0.80902,-0.56053 -0.80902,-0.56053 v 0 c -0.1482,0.0374 -0.29892,0.0625 -0.45138,0.075 -0.20724,0.0231 -0.41341,0.0547 -0.61733,0.0987 -0.21354,0.0393 -0.42928,0.065 -0.6419,0.10934 -0.41676,0.087 -0.83674,0.15855 -1.26135,0.19469 -0.56882,0.0459 -1.13896,0.0702 -1.70845,0.10626 -0.304437,0.0113 -0.349982,0.0149 -0.658992,0.0183 -0.457562,0.005 -0.915199,-0.004 -1.372756,0.003 -1.042297,0.0125 -2.084314,0.0368 -3.126145,0.0707 -0.223845,0.006 -0.447691,0.0112 -0.671536,0.0168 -0.21109,0.007 -0.42214,0.0155 -0.633272,0.0213 -0.82046,0.0225 -1.64147,0.0219 -2.462057,0.007 -0.375343,-0.01 -0.69343,-0.015 -1.067003,-0.0364 -0.154649,-0.009 -0.309248,-0.0194 -0.46346,-0.034 -0.161883,-0.0154 -0.406789,-0.0431 -0.579126,-0.0849 -0.03963,-0.01 -0.0774,-0.0258 -0.116099,-0.0386 z" />
  </g>
</svg>
