<?xml version="1.0" encoding="UTF-8" standalone="no"?>
<!-- Created with Inkscape (http://www.inkscape.org/) -->

<svg
   width="45.506096mm"
   height="36.414753mm"
   viewBox="0 0 45.506096 36.414753"
   version="1.1"
   id="svg1"
   xmlns="http://www.w3.org/2000/svg"
   xmlns:svg="http://www.w3.org/2000/svg">
  <defs
     id="defs1" />
  <g
     id="layer1"
     transform="translate(-12.249081,-7.9361408)">
    <path
       style="fill:#000000;stroke-width:0.264583"
       d="m 13.797493,31.402115 c 4.089088,-6.985524 8.859689,-15.845213 19.423165,-17.208241 10.563474,-1.36303 24.53452,14.652563 24.53452,14.652563 l -8.007793,15.504455 c 0,0 3.818385,-9.936046 0.14359,-17.19468 C 47.776152,22.97891 39.225916,17.768391 33.220657,18.453339 20.462823,19.908474 13.797493,31.402115 13.797493,31.402115 Z"
       id="path1" />
    <ellipse
       style="fill:#1a1a1a;stroke-width:0.219219"
       id="path2"
       cx="34.165062"
       cy="31.55517"
       rx="5.0588026"
       ry="7.1716413" />
    <ellipse
       style="fill:#f9f9f9;stroke-width:0.251622"
       id="path4"
       cx="29.225868"
       cy="25.780313"
       ry="6.982233"
       rx="3.9976172" />
    <path
       style="fill:#000000;stroke-width:0.31454"
       d="M 12.249081,15.048767 C 32.017876,1.0290235 57.206264,12.060683 57.206264,12.060683 l -0.614605,4.059467 c 0,0 -15.82249,-12.2118926 -44.342578,-1.071383 z"
       id="path8-2" />
  </g>
</svg>
